<svg xmlns="http://www.w3.org/2000/svg" viewBox="0 0 1097.69 1097.69"><defs><style>.cls-1{fill:#231e1f;}.cls-2{fill:#c1dce4;}.cls-3{fill:#e14341;}.cls-4{fill:#a1a036;}</style></defs><title>Lettermark</title><g id="Layer_2" data-name="Layer 2"><g id="Layer_1-2" data-name="Layer 1"><rect class="cls-1" width="1097.69" height="1097.69"/><path class="cls-2" d="M177.19,198.67h92v741h-92Z"/><path class="cls-3" d="M672.2,939.67v-72c-37,53-100,84-169,84-49,0-90-13-122-40-31-27-47-61-47-103,0-83,52-136,163-161l172-40v-7c0-60-46-100-115-100-64,0-112,37-120,93h-88c5-49,27-90,66-122,39-33,87-49,143-49,128,0,204,73,204,189v328Zm-46-110c29-31,43-67,43-110v-37l-149,35c-63,15-95,43-95,83,0,47,35,75,95,75C562.2,875.67,597.2,860.67,626.2,829.67Z"/><path class="cls-4" d="M1094.19,867.67c-51,0-93-17-127-52-33-35-50-78-50-129s17-93,50-128c34-35,76-52,127-52h3.5V423.12c-72.5,4.16-135.47,37.51-177.5,93.55v-318h-92v741h88v-87c42.63,60.64,106.83,95.22,181.5,98.69V867.67Z"/></g></g></svg>